<?xml version="1.0" encoding="utf-8"?>
<!-- Generator: Adobe Illustrator 21.0.0, SVG Export Plug-In . SVG Version: 6.00 Build 0)  -->
<svg version="1.1" id="图层_1" xmlns="http://www.w3.org/2000/svg" xmlns:xlink="http://www.w3.org/1999/xlink" x="0px" y="0px"
	 viewBox="0 0 500 500" style="enable-background:new 0 0 500 500;" xml:space="preserve">
<style type="text/css">
	.st0{fill:#FFFFFF;}
	.st1{fill:#DFDFDF;}
	.st2{fill:#076191;}
	.st3{fill:#128FBD;}
	.st4{fill:#348ACB;}
	.st5{fill:#F1C51E;}
	.st6{fill:#F19417;}
	.st7{fill:#EB6619;}
	.st8{fill:#EB651A;}
	.st9{fill:#E61F19;}
	.st10{fill:#DD2B15;}
	.st11{fill:#30BCEA;}
	.st12{fill:#F4C41F;}
</style>
<g>
	<polygon class="st0" points="165.8,348.6 165.8,348.6 165.8,348.6 	"/>
	<polygon class="st1" points="205.9,191.1 165.8,191.1 165.8,348.6 205.9,325.5 	"/>
	<polygon class="st0" points="165.8,348.6 165.8,348.6 165.8,348.6 	"/>
	<polygon class="st0" points="246,349.1 246,349.1 246,349.1 	"/>
	<polygon class="st1" points="286.1,191.6 246,191.6 246,349.1 286.1,325.9 	"/>
	<polygon class="st0" points="246,349.1 246,349.1 246,349.1 	"/>
	<polygon class="st0" points="326.2,348.6 326.2,348.6 326.2,348.6 	"/>
	<polygon class="st1" points="366.3,191.1 326.2,191.1 326.2,348.6 366.3,325.5 	"/>
	<polygon class="st0" points="326.2,348.6 326.2,348.6 326.2,348.6 	"/>
	<g>
		
			<ellipse id="XMLID_14_" transform="matrix(0.7981 -0.6026 0.6026 0.7981 -43.9088 329.4395)" class="st2" cx="469.6" cy="230.2" rx="28.4" ry="28.4"/>
		
			<ellipse id="XMLID_13_" transform="matrix(0.7981 -0.6026 0.6026 0.7981 -113.9676 342.4719)" class="st3" cx="454" cy="341.3" rx="25.8" ry="25.8"/>
		
			<ellipse id="XMLID_12_" transform="matrix(0.7981 -0.6026 0.6026 0.7981 -180.6646 319.4364)" class="st4" cx="386.3" cy="429.3" rx="19.7" ry="19.7"/>
		
			<ellipse id="XMLID_11_" transform="matrix(0.7981 -0.6026 0.6026 0.7981 35.1476 214.0663)" class="st5" cx="337" cy="54.6" rx="16.6" ry="16.6"/>
		
			<ellipse id="XMLID_10_" transform="matrix(0.7981 -0.6026 0.6026 0.7981 22.1543 143.8188)" class="st6" cx="225.7" cy="38.9" rx="19.7" ry="19.7"/>
		
			<ellipse id="XMLID_9_" transform="matrix(0.7981 -0.6026 0.6026 0.7981 -25.4869 88.1946)" class="st7" cx="118.8" cy="82.1" rx="26.3" ry="26.3"/>
		
			<ellipse id="XMLID_8_" transform="matrix(0.7981 -0.6026 0.6026 0.7981 -93.3768 68.2263)" class="st8" cx="55.1" cy="173.4" rx="30.5" ry="30.5"/>
		
			<ellipse id="XMLID_7_" transform="matrix(0.7981 -0.6026 0.6026 0.7981 -163.8993 78.7769)" class="st9" cx="35.6" cy="283.9" rx="33.6" ry="33.6"/>
		
			<ellipse id="XMLID_6_" transform="matrix(0.7981 -0.6026 0.6026 0.7981 -216.9115 126.7023)" class="st10" cx="80.6" cy="387" rx="31.6" ry="31.6"/>
		
			<ellipse id="XMLID_5_" transform="matrix(0.7981 -0.6026 0.6026 0.7981 -226.8514 263.0161)" class="st11" cx="279" cy="470" rx="12.9" ry="12.9"/>
		
			<ellipse id="XMLID_4_" transform="matrix(0.7981 -0.6026 0.6026 0.7981 -238.7173 195.9521)" class="st11" cx="173" cy="454.1" rx="10.4" ry="10.4"/>
		
			<ellipse id="XMLID_3_" transform="matrix(0.7981 -0.6026 0.6026 0.7981 10.2467 282.3565)" class="st12" cx="426.4" cy="125.9" rx="12.4" ry="12.4"/>
	</g>
	<polygon class="st0" points="165.8,168 125.7,191.1 165.8,214.3 205.9,191.1 	"/>
	<polygon class="st0" points="246,168.4 205.9,191.6 246,214.7 286.1,191.6 	"/>
	<polygon class="st0" points="326.2,168 286.1,191.1 326.2,214.3 366.3,191.1 	"/>
</g>
</svg>
